<?xml version="1.0" encoding="UTF-8"?>
<svg width="23px" height="23px" viewBox="0 0 23 23" version="1.1" xmlns="http://www.w3.org/2000/svg" xmlns:xlink="http://www.w3.org/1999/xlink">
    <!-- Generator: Sketch 51.2 (57519) - http://www.bohemiancoding.com/sketch -->
    <title>Shape</title>
    <desc>Created with Sketch.</desc>
    <defs></defs>
    <g id="Page-1" stroke="none" stroke-width="1" fill="none" fill-rule="evenodd">
        <g id="iPhone-SE-Copy-5" transform="translate(-203.000000, -5988.000000)" fill="#FFFFFF" fill-rule="nonzero">
            <g id="Footers" transform="translate(-410.000000, 5510.000000)">
                <g id="Follow-ThisLife" transform="translate(575.000000, 436.000000)">
                    <path d="M61,43.2680804 L61,63.7267857 C61,64.4301339 60.4301339,64.9948661 59.7319196,64.9948661 L53.8689732,64.9948661 L53.8689732,56.0926339 L56.8569196,56.0926339 L57.3035714,52.6220982 L53.8638393,52.6220982 L53.8638393,50.4042411 C53.8638393,49.3979911 54.1410714,48.7151786 55.5837054,48.7151786 L57.4216518,48.7151786 L57.4216518,45.6091518 C57.1033482,45.5680804 56.0149554,45.4705357 54.7417411,45.4705357 C52.0926339,45.4705357 50.2752232,47.0877232 50.2752232,50.0602679 L50.2752232,52.6220982 L47.2770089,52.6220982 L47.2770089,56.0926339 L50.2752232,56.0926339 L50.2752232,65 L39.2680804,65 C38.5698661,65 38,64.4301339 38,63.7319196 L38,43.2680804 C38,42.5698661 38.5698661,42 39.2680804,42 L59.7267857,42 C60.4301339,42 61,42.5698661 61,43.2680804 Z" id="Shape"></path>
                </g>
            </g>
        </g>
    </g>
</svg>