<?xml version="1.0" encoding="UTF-8"?>
<svg width="18px" height="18px" viewBox="0 0 18 18" version="1.1" xmlns="http://www.w3.org/2000/svg" xmlns:xlink="http://www.w3.org/1999/xlink">
    <!-- Generator: Sketch 51.2 (57519) - http://www.bohemiancoding.com/sketch -->
    <title>Fill 10@2x</title>
    <desc>Created with Sketch.</desc>
    <defs></defs>
    <g id="Page-1" stroke="none" stroke-width="1" fill="none" fill-rule="evenodd">
        <g id="iPhone-SE-Copy-4" transform="translate(-118.000000, -4618.000000)" fill="#FF934F">
            <g id="I'm-excited-to-help-you" transform="translate(0.000000, 4391.000000)">
                <g id="Nanny" transform="translate(18.000000, 159.000000)">
                    <path d="M115.338037,83.338162 L112.670199,83.338162 L112.670199,79.160845 C112.670199,78.1642338 112.651824,76.8830016 111.282843,76.8830016 C109.893488,76.8830016 109.680741,77.9682366 109.680741,79.088721 L109.680741,83.338162 L107.012903,83.338162 L107.012903,74.7481563 L109.573992,74.7481563 L109.573992,75.921765 L109.609492,75.921765 C109.965737,75.2465244 110.836724,74.5344092 112.135456,74.5344092 C114.838919,74.5344092 115.338037,76.3135095 115.338037,78.6263524 L115.338037,83.338162 Z M104.004069,73.5739226 C103.148581,73.5739226 102.455966,72.8800572 102.455966,72.0255691 C102.455966,71.1717059 103.148581,70.4780906 104.004069,70.4780906 C104.857808,70.4780906 105.551298,71.1717059 105.551298,72.0255691 C105.551298,72.8800572 104.857808,73.5739226 104.004069,73.5739226 Z M102.668713,83.338162 L105.338426,83.338162 L105.338426,74.7481563 L102.668713,74.7481563 L102.668713,83.338162 Z M116.667519,68 L101.328482,68 C100.595492,68 100,68.5809919 100,69.297357 L100,84.700893 C100,85.4178831 100.595492,85.99975 101.328482,85.99975 L116.667519,85.99975 C117.401758,85.99975 118,85.4178831 118,84.700893 L118,69.297357 C118,68.5809919 117.401758,68 116.667519,68 Z" id="Fill-10"></path>
                </g>
            </g>
        </g>
    </g>
</svg>