<?xml version="1.0" encoding="UTF-8"?>
<svg width="23px" height="23px" viewBox="0 0 23 23" version="1.1" xmlns="http://www.w3.org/2000/svg" xmlns:xlink="http://www.w3.org/1999/xlink">
    <!-- Generator: Sketch 51.2 (57519) - http://www.bohemiancoding.com/sketch -->
    <title>Shape</title>
    <desc>Created with Sketch.</desc>
    <defs></defs>
    <g id="Page-1" stroke="none" stroke-width="1" fill="none" fill-rule="evenodd">
        <g id="iPhone-SE-Copy-5" transform="translate(-165.000000, -5988.000000)" fill="#FFFFFF" fill-rule="nonzero">
            <g id="Footers" transform="translate(-410.000000, 5510.000000)">
                <g id="Follow-ThisLife" transform="translate(575.000000, 436.000000)">
                    <path d="M11.5051322,47.6030905 C8.24104652,47.6030905 5.60822269,50.2359143 5.60822269,53.5 C5.60822269,56.7640857 8.24104652,59.3969095 11.5051322,59.3969095 C14.7692179,59.3969095 17.4020417,56.7640857 17.4020417,53.5 C17.4020417,50.2359143 14.7692179,47.6030905 11.5051322,47.6030905 Z M11.5051322,57.333761 C9.39579382,57.333761 7.67137119,55.6144706 7.67137119,53.5 C7.67137119,51.3855294 9.39066161,49.666239 11.5051322,49.666239 C13.6196028,49.666239 15.3388932,51.3855294 15.3388932,53.5 C15.3388932,55.6144706 13.6144706,57.333761 11.5051322,57.333761 Z M19.0186879,47.3618766 C19.0186879,48.1265759 18.4028227,48.7373089 17.6432556,48.7373089 C16.8785563,48.7373089 16.2678233,48.1214437 16.2678233,47.3618766 C16.2678233,46.6023095 16.8836885,45.9864443 17.6432556,45.9864443 C18.4028227,45.9864443 19.0186879,46.6023095 19.0186879,47.3618766 Z M22.9242999,48.7578378 C22.8370523,46.9153743 22.4162111,45.2833315 21.0664398,43.9386924 C19.7218007,42.5940533 18.0897579,42.1732121 16.2472944,42.0808323 C14.3483767,41.9730559 8.65675555,41.9730559 6.75783778,42.0808323 C4.92050653,42.1680799 3.28846368,42.5889211 1.9386924,43.9335602 C0.58892112,45.2781993 0.173212094,46.9102421 0.0808323106,48.7527056 C-0.0269441035,50.6516233 -0.0269441035,56.3432444 0.0808323106,58.2421622 C0.168079884,60.0846257 0.58892112,61.7166685 1.9386924,63.0613076 C3.28846368,64.4059467 4.91537432,64.8267879 6.75783778,64.9191677 C8.65675555,65.0269441 14.3483767,65.0269441 16.2472944,64.9191677 C18.0897579,64.8319201 19.7218007,64.4110789 21.0664398,63.0613076 C22.4110789,61.7166685 22.8319201,60.0846257 22.9242999,58.2421622 C23.0320763,56.3432444 23.0320763,50.6567556 22.9242999,48.7578378 Z M20.4711034,60.2796497 C20.070791,61.2855629 19.2958273,62.0605266 18.2847819,62.4659712 C16.7707799,63.0664398 13.1782327,62.9278701 11.5051322,62.9278701 C9.83203169,62.9278701 6.23435234,63.0613076 4.72548254,62.4659712 C3.71956934,62.0656588 2.9446056,61.2906951 2.539161,60.2796497 C1.9386924,58.7656477 2.07726208,55.1731005 2.07726208,53.5 C2.07726208,51.8268995 1.94382461,48.2292201 2.539161,46.7203503 C2.93947339,45.7144371 3.71443713,44.9394734 4.72548254,44.5340288 C6.23948455,43.9335602 9.83203169,44.0721299 11.5051322,44.0721299 C13.1782327,44.0721299 16.7759121,43.9386924 18.2847819,44.5340288 C19.2906951,44.9343412 20.0656588,45.7093049 20.4711034,46.7203503 C21.071572,48.2343523 20.9330023,51.8268995 20.9330023,53.5 C20.9330023,55.1731005 21.071572,58.7707799 20.4711034,60.2796497 Z" id="Shape"></path>
                </g>
            </g>
        </g>
    </g>
</svg>