<?xml version="1.0" encoding="UTF-8"?>
<svg width="64px" height="30px" viewBox="0 0 64 30" version="1.1" xmlns="http://www.w3.org/2000/svg" xmlns:xlink="http://www.w3.org/1999/xlink">
    <!-- Generator: Sketch 51.1 (57501) - http://www.bohemiancoding.com/sketch -->
    <title>Logo</title>
    <desc>Created with Sketch.</desc>
    <defs></defs>
    <g id="Page-1" stroke="none" stroke-width="1" fill="none" fill-rule="evenodd">
        <g id="iPhone-SE-Copy-4" transform="translate(-20.000000, -525.000000)">
            <g id="Intro">
                <g id="contact-info" transform="translate(20.000000, 525.000000)">
                    <g id="Logo">
                        <path d="M32.4698483,23.1250759 C32.4698483,23.1250759 24.8273655,22.0392828 19.5771586,22.0392828 C14.3291586,22.0392828 6.68557241,23.1250759 6.68557241,23.1250759 C6.47812414,23.1537655 6.30929655,23.3490759 6.30929655,23.5576276 L6.30929655,24.3554207 C6.30929655,24.5639724 6.47812414,24.710731 6.68557241,24.6809379 C6.68557241,24.6809379 14.2353655,23.5962483 19.5771586,23.5962483 C24.9211586,23.5962483 32.4709517,24.6809379 32.4709517,24.6809379 C32.6761931,24.710731 32.8472276,24.5639724 32.8472276,24.3554207 L32.8472276,23.5576276 C32.8472276,23.3490759 32.6761931,23.1537655 32.4698483,23.1250759" id="Fill-1" fill="#1B1A4A"></path>
                        <path d="M22.5549241,7.47906207 C22.9223724,7.65671724 24.6338207,8.46002759 24.9593379,8.61782069 C25.3775448,8.82085517 25.5408552,8.40264828 25.6677517,8.17533793 C25.7957517,7.94802759 27.1750621,5.27768276 27.3516138,4.93561379 C27.5281655,4.59354483 27.3637517,4.40375172 27.1860966,4.26471724 C27.0095448,4.12568276 26.0352,3.48016552 25.6809931,3.25175172 C25.3267862,3.02444138 24.9847172,3.15133793 24.8203034,3.35326897 C24.6547862,3.55630345 22.4666483,6.34030345 22.3143724,6.60623448 C22.1632,6.87216552 22.1874759,7.30251034 22.5549241,7.47906207" id="Fill-3" fill="#1B1A4A"></path>
                        <path d="M23.5344552,15.2711724 C24.4944552,12.2256552 25.5714207,10.7183448 25.6486621,10.5605517 C25.7634207,10.3332414 25.8384552,10.096 25.5350069,9.92496552 C25.1664552,9.71751724 23.5664552,9.13710345 23.2133517,9.11172414 C22.8591448,9.08744828 22.6814897,9.17572414 22.4784552,9.40303448 C22.3824552,9.51227586 21.3220414,10.7051034 20.4756966,13.0808276 C19.5510069,15.6717241 19.0125241,18.3906207 18.9860414,18.6289655 C18.9352828,19.0846897 18.6572138,20.121931 19.3402483,20.3746207 C20.0232828,20.6284138 21.3242483,21.017931 21.7446621,21.1337931 C22.0514207,21.2198621 22.2985931,21.0775172 22.4034207,20.3746207 C22.4740414,19.8670345 22.5556966,19.3870345 22.6406621,18.9213793 C22.7432828,18.9931034 22.866869,19.0758621 22.9341793,19.110069 C23.0610759,19.1729655 23.1625931,19.2744828 23.3270069,18.8816552 C24.8199724,15.2369655 27.8323862,13.0102069 27.8323862,13.0102069 C27.8323862,13.0102069 30.4894897,18.9202759 28.5783172,18.9202759 C27.2630069,18.9202759 26.2996966,16.9307586 26.1617655,16.7056552 C26.0194207,16.473931 25.734731,16.5026207 25.6210759,16.6637241 C25.5063172,16.8248276 25.2381793,17.2110345 25.1366621,17.414069 C25.0351448,17.616 25.1841103,17.8223448 25.2955586,18.0209655 C25.4048,18.2206897 26.5888,21.0333793 29.2238345,21.0333793 C31.046731,21.0333793 32.7934897,20.3746207 32.7934897,18.704 C32.7934897,17.0344828 31.2243862,12.3768276 31.2243862,11.9718621 C31.2243862,11.5668966 31.4263172,11.4146207 31.5278345,11.1111724 C31.6293517,10.8077241 31.5532138,10.6046897 31.2751448,10.4027586 C30.9959724,10.1997241 30.4265931,9.71972414 30.0723862,9.54206897 C29.7181793,9.36441379 29.4842483,9.51668966 29.2878345,9.64358621 C26.6561103,11.4245517 24.3532138,14.2206897 23.5344552,15.2711724" id="Fill-5" fill="#1B1A4A"></path>
                        <path d="M47.2834207,4.98615172 C47.6751448,4.25235862 47.4610759,3.82201379 47.2072828,3.64546207 C46.9545931,3.4678069 45.0941793,2.35442759 44.8911448,2.30366897 C44.6892138,2.25291034 44.4608,2.35442759 44.258869,2.5056 C44.0558345,2.65787586 42.486731,4.15084138 42.486731,4.32849655 C42.486731,4.50504828 42.7912828,4.65732414 42.7912828,4.65732414 C41.3579034,7.3033931 39.9156966,10.3753931 38.6732138,13.2366345 C36.4916966,18.259531 34.8894897,22.6324966 34.7934897,22.9061517 C34.6412138,23.3364966 34.5705931,23.7922207 35.1223172,24.0702897 C35.6729379,24.3483586 37.2983172,25.2101517 37.6271448,25.2851862 C37.9570759,25.3613241 38.1843862,25.2851862 38.3863172,24.7290483 C38.5893517,24.1718069 40.9076966,18.0211862 42.3123862,14.6799448 C43.7181793,11.3387034 46.8916966,5.72104828 47.2834207,4.98615172" id="Fill-7" fill="#1B1A4A"></path>
                        <path d="M18.9353931,1.26576552 C20.5298759,1.26576552 21.0109793,2.2025931 21.0109793,3.11293793 C21.0109793,4.02438621 20.8851862,8.04866207 15.3668414,8.04866207 C14.8669793,8.04866207 14.3671172,8.01335172 13.8683586,7.96369655 C14.9210483,5.09914483 16.739531,1.26576552 18.9353931,1.26576552 M9.13677241,8.52645517 C9.45677241,8.62135172 9.78670345,8.71073103 10.1188414,8.7945931 C9.07277241,11.8301793 6.86477241,18.4155586 6.65953103,19.046731 C6.41897931,19.7871448 6.88794483,19.9074207 7.11525517,20.0332138 C7.34256552,20.1601103 9.1158069,20.8806621 9.44353103,20.9954207 C9.77235862,21.1090759 10.0062897,20.8806621 10.1420138,20.4139034 C10.211531,20.1799724 10.8669793,18.1253517 11.5533241,16.1259034 C12.2429793,14.1165241 12.9657379,12.1623172 14.0758069,12.1623172 C15.4176,12.1623172 15.5113931,13.1995586 15.2840828,14.2434207 C15.183669,14.7057655 13.6653241,18.7675586 13.5439448,19.3248 C13.4247724,19.8820414 13.6708414,20.070731 13.8992552,20.1722483 C14.1265655,20.2737655 15.9108414,20.8310069 16.3400828,20.9071448 C16.771531,20.9821793 17.0628414,20.7294897 17.1897379,20.2991448 C17.315531,19.8688 19.2896,14.3008 19.2896,13.1112828 C19.2896,11.9217655 18.6319448,9.77004138 16.6324966,9.77004138 C14.6330483,9.77004138 12.8862897,11.0356966 12.8862897,11.0356966 C12.8862897,11.0356966 13.0639448,10.3625931 13.3817379,9.37831724 C14.0272552,9.44452414 14.6793931,9.49197241 15.3414621,9.49197241 C21.3651862,9.49197241 22.3527724,5.03624828 22.3527724,3.59404138 C22.3527724,2.15183448 21.8462897,0.000110344828 18.7323586,0.000110344828 C13.4413241,0.000110344828 11.3425655,5.38052414 10.627531,7.34907586 C10.319669,7.26411034 10.0184276,7.17142069 9.7193931,7.07652414 C10.2689103,5.73031724 10.6860138,4.75376552 10.8173241,4.44369655 C11.1384276,3.6768 10.883531,3.26742069 10.6142897,3.11514483 C10.3461517,2.96286897 8.38863448,2.02824828 8.1833931,1.99735172 C7.97594483,1.96645517 7.75966897,2.08783448 7.57208276,2.25776552 C7.48711724,2.33611034 6.86366897,3.71983448 6.06256552,5.62990345 C3.84353103,4.58604138 2.34284138,3.59183448 2.26228966,3.55652414 C2.09125517,3.48038621 1.86284138,3.44286897 1.73704828,3.67017931 C1.61015172,3.89748966 1.42808276,4.59597241 1.42808276,4.59597241 C1.42808276,4.59597241 1.27470345,4.88507586 1.6233931,5.10024828 C1.78449655,5.19955862 3.23442759,6.15073103 5.43801379,7.14052414 C4.61042759,9.16535172 3.70118621,11.4958345 3.01925517,13.4665931 C1.44132414,18.0238345 0.133737931,23.174731 0.0631172414,23.4572138 C-0.0472275862,23.9008 -0.0737103448,24.3609379 0.500082759,24.5860414 C1.07387586,24.8111448 2.77428966,25.5151448 3.10863448,25.5603862 C3.44408276,25.6045241 3.66366897,25.5074207 3.81263448,24.934731 C3.96270345,24.3609379 5.43249655,19.0842483 6.92877241,14.5479724 C7.61953103,12.4536276 8.42946207,10.3096276 9.13677241,8.52645517" id="Fill-9" fill="#1B1A4A"></path>
                        <path d="M50.2134069,7.6246069 C51.0796138,7.6246069 52.6553379,4.8406069 52.6553379,4.37936552 C52.6553379,3.91702069 51.3146483,3.06957241 50.3590621,3.06957241 C49.1872,3.06957241 47.7769931,5.89108966 47.7769931,6.35343448 C47.7769931,6.81467586 49.4222345,7.6246069 50.2134069,7.6246069" id="Fill-12" fill="#4A4A4A"></path>
                        <path d="M57.0279724,17.0846897 C57.0279724,16.1224828 58.9005241,12.2493793 60.6726621,12.2493793 C61.3810759,12.2493793 61.5576276,12.832 61.5576276,13.3517241 C61.5576276,15.2375172 58.9270069,17.5404138 57.5852138,17.5404138 C57.3568,17.5404138 57.0279724,17.4642759 57.0279724,17.0846897 M55.2812138,24.5771034 C55.2812138,25.462069 54.8254897,27.8168276 52.546869,27.8168276 C51.2580414,27.8168276 49.814731,26.537931 49.814731,24.3111724 C49.814731,20.969931 50.978869,18.1473103 50.978869,18.1473103 C50.978869,18.1473103 55.2812138,19.008 55.2812138,24.5771034 M63.3043862,19.2871724 C63.2293517,19.1227586 62.902731,18.7144828 62.7559724,18.5423448 C62.6114207,18.3713103 62.4425931,18.5489655 62.2737655,18.6548966 C61.8191448,18.9384828 60.9893517,19.4637241 59.862731,19.4637241 C58.3190069,19.4637241 58.166731,18.7553103 58.166731,18.7553103 C60.1408,18.7553103 62.9259034,15.3633103 62.9259034,13.3892414 C62.9259034,11.4151724 62.3686621,11.1117241 62.0641103,10.857931 C61.7606621,10.6052414 60.5457655,9.71917241 59.5339034,9.71917241 C56.9010759,9.71917241 54.0916966,14.4275862 54.0916966,16.7812414 C54.0916966,16.9533793 54.1137655,17.1211034 54.1490759,17.2866207 L54.0916966,17.2623448 C52.9783172,16.7304828 51.6122483,16.4016552 51.6122483,16.4016552 C53.3325241,12.0982069 57.5476966,7.58068966 57.7374897,7.328 C57.9261793,7.0742069 57.8765241,6.61848276 57.6734897,6.4662069 C57.4704552,6.31503448 56.2180414,5.40358621 55.9653517,5.22703448 C55.7126621,5.04937931 55.2812138,4.92358621 54.8916966,5.3782069 C53.4572138,7.17241379 49.9890759,11.2673103 48.1970759,16.022069 C47.7976276,16.0364138 46.6511448,16.1986207 46.6511448,16.1986207 C48.6759724,11.7693793 50.2196966,9.80744828 50.3454897,9.52937931 C50.4723862,9.25131034 50.5485241,8.70731034 50.0420414,8.50427586 C49.5366621,8.30234483 48.1816276,7.82124138 47.8649379,7.75724138 C47.5493517,7.69434483 47.2459034,7.88413793 47.042869,8.15006897 C44.3857655,12.118069 42.4492138,17.1288276 42.3355586,17.376 C42.2208,17.622069 42.1832828,17.9928276 42.5441103,18.3823448 C43.094731,18.9131034 44.1573517,19.4262069 44.5181793,19.5586207 C44.8790069,19.6921379 45.1438345,19.5398621 45.2961103,19.273931 C45.4483862,19.008 45.7716966,18.4573793 45.7716966,18.4573793 C46.1888,18.1914483 47.5934897,17.8692414 47.5934897,17.8692414 L47.5990069,17.8637241 C47.2756966,19.0797241 47.0803862,20.3233103 47.0803862,21.5713103 C47.0803862,28.4811034 50.8773517,29.1828966 52.2820414,29.1828966 C53.6878345,29.1828966 56.6296276,28.4623448 56.6296276,24.6267586 C56.6296276,20.7922759 54.9016276,18.9131034 54.9016276,18.9131034 L54.9612138,18.8171034 C56.0977655,20.096 58.1170759,20.9313103 59.5835586,20.9313103 C61.1979034,20.9313103 62.4977655,20.2063448 63.0472828,19.7473103 C63.2304552,19.593931 63.3816276,19.4515862 63.3043862,19.2871724" id="Fill-14" fill="#1B1A4A"></path>
                    </g>
                </g>
            </g>
        </g>
    </g>
</svg>