<?xml version="1.0" encoding="UTF-8"?>
<svg width="23px" height="23px" viewBox="0 0 23 23" version="1.1" xmlns="http://www.w3.org/2000/svg" xmlns:xlink="http://www.w3.org/1999/xlink">
    <!-- Generator: Sketch 51.2 (57519) - http://www.bohemiancoding.com/sketch -->
    <title>Shape@2x</title>
    <desc>Created with Sketch.</desc>
    <defs></defs>
    <g id="Page-1" stroke="none" stroke-width="1" fill="none" fill-rule="evenodd">
        <g id="iPhone-SE-Copy-5" transform="translate(-241.000000, -5988.000000)" fill="#FFFFFF" fill-rule="nonzero">
            <g id="Footers" transform="translate(-410.000000, 5510.000000)">
                <g id="Follow-ThisLife" transform="translate(575.000000, 436.000000)">
                    <path d="M76,42 L76,65 L99,65 L99,42 L76,42 Z M95.1084821,47.4470982 L93.8763393,48.6279018 C93.7685268,48.7100446 93.7171875,48.8435268 93.7377232,48.971875 L93.7377232,57.6636161 C93.7171875,57.7970982 93.7685268,57.9305804 93.8763393,58.0075893 L95.0828125,59.1883929 L95.0828125,59.4502232 L89.0247768,59.4502232 L89.0247768,59.1986607 L90.2723214,57.9870536 C90.3955357,57.8638393 90.3955357,57.8279018 90.3955357,57.6430804 L90.3955357,50.6147321 L86.925,59.4245536 L86.4578125,59.4245536 L82.4174107,50.6147321 L82.4174107,56.51875 C82.3814732,56.7651786 82.46875,57.0167411 82.6433036,57.1964286 L84.265625,59.1627232 L84.265625,59.4245536 L79.6553571,59.4245536 L79.6553571,59.1627232 L81.2776786,57.1964286 C81.4522321,57.0167411 81.5292411,56.7651786 81.4881696,56.51875 L81.4881696,49.690625 C81.5087054,49.5006696 81.4368304,49.3158482 81.2930804,49.1875 L79.8504464,47.4470982 L79.8504464,47.1852679 L84.3323661,47.1852679 L87.7926339,54.7834821 L90.8370536,47.1904018 L95.1084821,47.1904018 L95.1084821,47.4470982 Z" id="Shape"></path>
                </g>
            </g>
        </g>
    </g>
</svg>