<?xml version="1.0" encoding="UTF-8"?>
<svg width="18px" height="18px" viewBox="0 0 18 18" version="1.1" xmlns="http://www.w3.org/2000/svg" xmlns:xlink="http://www.w3.org/1999/xlink">
    <!-- Generator: Sketch 51.2 (57519) - http://www.bohemiancoding.com/sketch -->
    <title>Shape@2x</title>
    <desc>Created with Sketch.</desc>
    <defs></defs>
    <g id="Page-1" stroke="none" stroke-width="1" fill="none" fill-rule="evenodd">
        <g id="iPhone-SE-Copy-4" transform="translate(-146.000000, -4618.000000)" fill="#FF934F" fill-rule="nonzero">
            <g id="I'm-excited-to-help-you" transform="translate(0.000000, 4391.000000)">
                <g id="Nanny" transform="translate(18.000000, 159.000000)">
                    <path d="M128,68 L128,86 L146,86 L146,68 L128,68 Z M142.954464,72.2629464 L141.990179,73.1870536 C141.905804,73.2513393 141.865625,73.3558036 141.881696,73.45625 L141.881696,80.2584821 C141.865625,80.3629464 141.905804,80.4674107 141.990179,80.5276786 L142.934375,81.4517857 L142.934375,81.6566964 L138.193304,81.6566964 L138.193304,81.4598214 L139.169643,80.5116071 C139.266071,80.4151786 139.266071,80.3870536 139.266071,80.2424107 L139.266071,74.7419643 L136.55,81.6366071 L136.184375,81.6366071 L133.022321,74.7419643 L133.022321,79.3625 C132.994196,79.5553571 133.0625,79.7522321 133.199107,79.8928571 L134.46875,81.4316964 L134.46875,81.6366071 L130.860714,81.6366071 L130.860714,81.4316964 L132.130357,79.8928571 C132.266964,79.7522321 132.327232,79.5553571 132.295089,79.3625 L132.295089,74.01875 C132.311161,73.8700893 132.254911,73.7254464 132.142411,73.625 L131.013393,72.2629464 L131.013393,72.0580357 L134.520982,72.0580357 L137.229018,78.0044643 L139.611607,72.0620536 L142.954464,72.0620536 L142.954464,72.2629464 Z" id="Shape"></path>
                </g>
            </g>
        </g>
    </g>
</svg>