<?xml version="1.0" encoding="UTF-8"?>
<svg width="18px" height="18px" viewBox="0 0 18 18" version="1.1" xmlns="http://www.w3.org/2000/svg" xmlns:xlink="http://www.w3.org/1999/xlink">
    <!-- Generator: Sketch 51.2 (57519) - http://www.bohemiancoding.com/sketch -->
    <title>Shape</title>
    <desc>Created with Sketch.</desc>
    <defs></defs>
    <g id="Page-1" stroke="none" stroke-width="1" fill="none" fill-rule="evenodd">
        <g id="iPhone-SE-Copy-5" transform="translate(-20.000000, -5366.000000)" fill="#201F59" fill-rule="nonzero">
            <g id="I'm-excited-to-help-you" transform="translate(0.000000, 4382.000000)">
                <g id="This-Life-on-Medium" transform="translate(0.000000, 968.000000)">
                    <path d="M20,16 L20,34 L38,34 L38,16 L20,16 Z M34.9544643,20.2629464 L33.9901786,21.1870536 C33.9058036,21.2513393 33.865625,21.3558036 33.8816964,21.45625 L33.8816964,28.2584821 C33.865625,28.3629464 33.9058036,28.4674107 33.9901786,28.5276786 L34.934375,29.4517857 L34.934375,29.6566964 L30.1933036,29.6566964 L30.1933036,29.4598214 L31.1696429,28.5116071 C31.2660714,28.4151786 31.2660714,28.3870536 31.2660714,28.2424107 L31.2660714,22.7419643 L28.55,29.6366071 L28.184375,29.6366071 L25.0223214,22.7419643 L25.0223214,27.3625 C24.9941964,27.5553571 25.0625,27.7522321 25.1991071,27.8928571 L26.46875,29.4316964 L26.46875,29.6366071 L22.8607143,29.6366071 L22.8607143,29.4316964 L24.1303571,27.8928571 C24.2669643,27.7522321 24.3272321,27.5553571 24.2950893,27.3625 L24.2950893,22.01875 C24.3111607,21.8700893 24.2549107,21.7254464 24.1424107,21.625 L23.0133929,20.2629464 L23.0133929,20.0580357 L26.5209821,20.0580357 L29.2290179,26.0044643 L31.6116071,20.0620536 L34.9544643,20.0620536 L34.9544643,20.2629464 Z" id="Shape"></path>
                </g>
            </g>
        </g>
    </g>
</svg>